<?xml version="1.0" encoding="utf-8"?>
<svg viewBox="66.178 20.811 283.985 289.812" xmlns="http://www.w3.org/2000/svg">
  <g transform="matrix(1, 0, 0, 1, 23.470455, -584.661011)">
    <g opacity="1" transform="rotate(0 54.1832 614.5043)">
      <svg x="54.1832" y="614.5043" width="260.1127" height="272.8796" viewBox="0 0 14.8196 15.547"
        preserveAspectRatio="none">
        <g transform="matrix(1 0 0 1 0 0)">
          <g>
            <polygon points="12.2965,8.5799 14.8092,8.5799 14.8101,7.6502 12.2939,7.6502 "
              style="fill: rgb(255, 255, 255)" />
            <polygon points="-0,13.4495 2.5137,13.4435 2.53,14.3695 -0,14.3754 " style="fill: rgb(255, 255, 255)" />
            <polygon points="2.5611,13.2116 0.0116,13.2116 0.0116,12.286 2.5265,12.286 "
              style="fill: rgb(255, 255, 255)" />
            <polygon points="2.5286,11.1413 2.5358,12.0672 0.0233,12.0672 0.0099,11.1281 "
              style="fill: rgb(255, 255, 255)" />
            <polygon points="2.5253,9.9677 2.5265,10.8958 0.0116,10.8958 0.0119,9.9659 "
              style="fill: rgb(255, 255, 255)" />
            <path
              d="M2.524 8.7976l0 0.9258 -2.504 0.0147 -0.0085 -0.635 0 -0.2949c0.8479,-0.0164 1.6683,-0.0106 2.5125,-0.0106z"
              style="fill: rgb(255, 255, 255)" />
            <polygon points="2.5247,8.5799 0.0128,8.5799 0.011,7.6502 2.5273,7.6502 " style="fill: rgb(255, 255, 255)" />
            <polygon points="0.0158,14.6075 2.5358,14.6075 2.53,15.547 0.0116,15.547 " style="fill: rgb(255, 255, 255)" />
            <path
              d="M2.5852 6.5415l-0.0695 0.9515c-0.8338,-0.0696 -1.6678,-0.138 -2.5018,-0.2073l0.0644 -0.9168 2.5069 0.1726z"
              style="fill: rgb(255, 255, 255)" />
            <polygon points="2.87,5.5317 2.6175,6.4211 0.2001,5.7431 0.453,4.8473 " style="fill: rgb(255, 255, 255)" />
            <path
              d="M0.734 4.231l0.0001 -0.0001c0.0735,-0.28 0.2892,-0.6397 0.4676,-0.7948l2.1442 1.1878 -0.4191 0.7951 -2.1928 -1.188z"
              style="fill: rgb(255, 255, 255)" />
            <path
              d="M2.1266 2.2207c0.6334,0.5069 1.2574,1.0374 1.8838,1.5542l-0.5946 0.7428 -1.8821 -1.6319c0.0492,-0.0726 0.5655,-0.6847 0.5929,-0.6651z"
              style="fill: rgb(255, 255, 255)" />
            <path
              d="M4.8367 3.1849l-0.7213 0.5403 -1.4797 -1.9811c0.1403,-0.15 0.561,-0.4476 0.716,-0.5366 0.2752,0.3594 1.3301,1.7022 1.485,1.9774z"
              style="fill: rgb(255, 255, 255)" />
            <polygon points="4.747,0.4938 5.7814,2.7336 4.9259,3.1466 3.9225,0.8555 " style="fill: rgb(255, 255, 255)" />
            <polygon points="6.81,2.5262 5.9231,2.7061 5.3878,0.2581 6.278,0.0784 " style="fill: rgb(255, 255, 255)" />
            <polygon points="7.8657,0 7.858,2.5062 6.9235,2.4888 6.9322,0.0222 " style="fill: rgb(255, 255, 255)" />
            <path
              d="M9.416 0.2538c-0.144,0.6113 -0.0218,0.0974 -0.5754,2.4407l-0.8642 -0.2076 0.5192 -2.3906 0.9204 0.1575z"
              style="fill: rgb(255, 255, 255)" />
            <polygon points="9.0003,2.7207 9.4245,1.7994 10.0275,0.4897 10.8694,0.8478 9.8437,3.1125 "
              style="fill: rgb(255, 255, 255)" />
            <path
              d="M10.6282 3.727l-0.6664 -0.5482c0.4859,-0.6549 0.9727,-1.3089 1.4591,-1.9635 0.2337,0.1673 0.4936,0.3453 0.7388,0.5288 -0.2183,0.3009 0,0 -1.5315,1.9829z"
              style="fill: rgb(255, 255, 255)" />
            <path
              d="M13.2683 2.9289c-0.3719,0.2979 -1.6519,1.462 -1.9587,1.5703l-0.5312 -0.7071 1.8643 -1.5958 0.6256 0.7326z"
              style="fill: rgb(255, 255, 255)" />
            <path
              d="M14.0583 4.2319l-2.1793 1.1918 -0.422 -0.8315 2.1666 -1.1591c0.135,0.127 0.3852,0.6066 0.4364,0.7979l-0.0017 0.0009z"
              style="fill: rgb(255, 255, 255)" />
            <path
              d="M14.7991 7.302c-0.8051,0.0431 -1.7176,0.142 -2.5117,0.1348l-0.067 -0.9114 2.5028 -0.1522 0.0759 0.9288z"
              style="fill: rgb(255, 255, 255)" />
            <polygon points="12.2838,13.4495 14.8008,13.4436 14.817,14.3695 12.2838,14.3754 "
              style="fill: rgb(255, 255, 255)" />
            <polygon points="14.8196,13.2213 12.3071,13.2213 12.2947,12.286 14.8096,12.286 "
              style="fill: rgb(255, 255, 255)" />
            <polygon points="14.8112,11.1413 14.8196,12.0672 12.3071,12.0672 12.2923,11.1281 "
              style="fill: rgb(255, 255, 255)" />
            <polygon points="12.2966,9.9677 14.8091,9.9677 14.8096,10.8958 12.2947,10.8958 "
              style="fill: rgb(255, 255, 255)" />
            <path d="M12.2954 8.7976c0.8375,0 1.675,0 2.5125,0l0 0.9258 -2.5125 0 0 -0.9258z"
              style="fill: rgb(255, 255, 255)" />
            <polygon points="12.3071,14.6075 14.8196,14.6075 14.8196,15.5334 12.2947,15.547 "
              style="fill: rgb(255, 255, 255)" />
            <path
              d="M11.9433 5.5124l0.2422 0.9047 2.4127 -0.675c-0.0565,-0.2854 -0.1269,-0.6569 -0.288,-0.9005l-2.3669 0.6708z"
              style="fill: rgb(255, 255, 255)" />
            <polygon points="10.0074,8.2022 11.3431,8.2022 11.3436,7.708 10.0061,7.708 "
              style="fill: rgb(255, 255, 255)" />
            <polygon points="3.4709,10.7907 4.8072,10.7875 4.8158,11.2798 3.4709,11.2829 "
              style="fill: rgb(255, 255, 255)" />
            <polygon points="4.8324,10.6643 3.4771,10.6643 3.4771,10.1722 4.814,10.1722 "
              style="fill: rgb(255, 255, 255)" />
            <polygon points="4.8151,9.5637 4.8189,10.0559 3.4833,10.0559 3.4762,9.5567 "
              style="fill: rgb(255, 255, 255)" />
            <polygon points="4.8133,8.9399 4.814,9.4332 3.4771,9.4332 3.4773,8.9389 " style="fill: rgb(255, 255, 255)" />
            <path
              d="M4.8126 8.3179l0 0.4921 -1.331 0.0078 -0.0046 -0.3375 0 -0.1568c0.4508,-0.0087 0.8869,-0.0056 1.3356,-0.0056z"
              style="fill: rgb(255, 255, 255)" />
            <polygon points="4.813,8.2022 3.4777,8.2022 3.4768,7.708 4.8144,7.708 " style="fill: rgb(255, 255, 255)" />
            <polygon points="3.4793,11.4063 4.8189,11.4063 4.8158,11.9057 3.4771,11.9057 "
              style="fill: rgb(255, 255, 255)" />
            <path
              d="M4.8452 7.1186l-0.037 0.5058c-0.4432,-0.037 -0.8865,-0.0734 -1.3299,-0.1102l0.0343 -0.4874 1.3326 0.0918z"
              style="fill: rgb(255, 255, 255)" />
            <polygon points="4.9966,6.5818 4.8623,7.0546 3.5773,6.6942 3.7117,6.218 " style="fill: rgb(255, 255, 255)" />
            <path
              d="M3.8611 5.8904l0.0001 -0.0001c0.039,-0.1488 0.1537,-0.34 0.2485,-0.4225l1.1398 0.6315 -0.2228 0.4226 -1.1656 -0.6315z"
              style="fill: rgb(255, 255, 255)" />
            <path
              d="M4.6014 4.8218c0.3367,0.2694 0.6684,0.5514 1.0014,0.8261l-0.3161 0.3949 -1.0005 -0.8675c0.0262,-0.0386 0.3006,-0.3639 0.3152,-0.3535z"
              style="fill: rgb(255, 255, 255)" />
            <path
              d="M6.042 5.3343l-0.3834 0.2872 -0.7866 -1.0531c0.0746,-0.0797 0.2982,-0.2379 0.3806,-0.2852 0.1463,0.191 0.7071,0.9048 0.7894,1.0511z"
              style="fill: rgb(255, 255, 255)" />
            <polygon points="5.9943,3.9038 6.5442,5.0944 6.0894,5.314 5.556,4.0961 " style="fill: rgb(255, 255, 255)" />
            <polygon points="7.091,4.9842 6.6195,5.0798 6.335,3.7785 6.8082,3.683 " style="fill: rgb(255, 255, 255)" />
            <polygon points="7.6521,3.6413 7.6481,4.9735 7.1513,4.9643 7.1559,3.6531 " style="fill: rgb(255, 255, 255)" />
            <path
              d="M8.4762 3.7762c-0.0765,0.325 -0.0115,0.0518 -0.3058,1.2974l-0.4594 -0.1103 0.276 -1.2708 0.4892 0.0837z"
              style="fill: rgb(255, 255, 255)" />
            <polygon points="8.2553,5.0876 8.4808,4.5978 8.8013,3.9016 9.2488,4.092 8.7036,5.2958 "
              style="fill: rgb(255, 255, 255)" />
            <path
              d="M9.1206 5.6225l-0.3542 -0.2914c0.2583,-0.3482 0.517,-0.6958 0.7756,-1.0438 0.1242,0.089 0.2624,0.1836 0.3927,0.2811 -0.116,0.16 0,0 -0.8141,1.0541z"
              style="fill: rgb(255, 255, 255)" />
            <path
              d="M10.524 5.1982c-0.1977,0.1584 -0.8781,0.7772 -1.0412,0.8348l-0.2823 -0.3759 0.991 -0.8483 0.3325 0.3894z"
              style="fill: rgb(255, 255, 255)" />
            <path
              d="M10.944 5.8909l-1.1585 0.6335 -0.2243 -0.442 1.1517 -0.6161c0.0718,0.0675 0.2048,0.3224 0.232,0.4241l-0.0009 0.0005z"
              style="fill: rgb(255, 255, 255)" />
            <path
              d="M11.3378 7.5229c-0.428,0.0229 -0.9131,0.0754 -1.3352,0.0716l-0.0356 -0.4845 1.3304 -0.0809 0.0404 0.4938z"
              style="fill: rgb(255, 255, 255)" />
            <polygon points="10.0007,10.7907 11.3387,10.7876 11.3473,11.2798 10.0007,11.2829 "
              style="fill: rgb(255, 255, 255)" />
            <polygon points="11.3487,10.6694 10.0131,10.6694 10.0065,10.1722 11.3434,10.1722 "
              style="fill: rgb(255, 255, 255)" />
            <polygon points="11.3442,9.5637 11.3487,10.0559 10.0131,10.0559 10.0052,9.5567 "
              style="fill: rgb(255, 255, 255)" />
            <polygon points="10.0075,8.9399 11.3431,8.9399 11.3434,9.4332 10.0065,9.4332 "
              style="fill: rgb(255, 255, 255)" />
            <path d="M10.0069 8.3179c0.4452,0 0.8904,0 1.3355,0l0 0.4921 -1.3355 0 0 -0.4921z"
              style="fill: rgb(255, 255, 255)" />
            <polygon points="10.0131,11.4063 11.3487,11.4063 11.3487,11.8985 10.0065,11.9057 "
              style="fill: rgb(255, 255, 255)" />
            <path
              d="M9.8197 6.5716l0.1287 0.4809 1.2826 -0.3588c-0.0301,-0.1518 -0.0675,-0.3492 -0.1531,-0.4787l-1.2582 0.3566z"
              style="fill: rgb(255, 255, 255)" />
            <polygon points="8.4964,7.9528 9.0552,7.9528 9.0554,7.7461 8.4959,7.7461 " style="fill: rgb(255, 255, 255)" />
            <polygon points="5.7621,9.0356 6.3211,9.0343 6.3247,9.2402 5.7621,9.2415 " style="fill: rgb(255, 255, 255)" />
            <polygon points="6.3316,8.9827 5.7647,8.9827 5.7647,8.7769 6.3239,8.7769 " style="fill: rgb(255, 255, 255)" />
            <polygon points="6.3244,8.5224 6.326,8.7283 5.7673,8.7283 5.7643,8.5194 " style="fill: rgb(255, 255, 255)" />
            <polygon points="6.3237,8.2614 6.3239,8.4678 5.7647,8.4678 5.7648,8.261 " style="fill: rgb(255, 255, 255)" />
            <path
              d="M6.3234 8.0012l0 0.2059 -0.5568 0.0033 -0.0019 -0.1412 0 -0.0656c0.1885,-0.0037 0.3709,-0.0024 0.5587,-0.0024z"
              style="fill: rgb(255, 255, 255)" />
            <polygon points="6.3235,7.9528 5.765,7.9528 5.7646,7.7461 6.3241,7.7461 " style="fill: rgb(255, 255, 255)" />
            <polygon points="5.7656,9.2931 6.326,9.2931 6.3247,9.5021 5.7647,9.5021 " style="fill: rgb(255, 255, 255)" />
            <path
              d="M6.337 7.4995l-0.0155 0.2116c-0.1854,-0.0155 -0.3708,-0.0307 -0.5563,-0.0461l0.0143 -0.2038 0.5575 0.0383z"
              style="fill: rgb(255, 255, 255)" />
            <polygon points="6.4003,7.275 6.3442,7.4728 5.8066,7.322 5.8628,7.1228 " style="fill: rgb(255, 255, 255)" />
            <path
              d="M5.9253 6.9858l0.0001 -0.0001c0.0163,-0.0622 0.0643,-0.1422 0.1039,-0.1767l0.4768 0.2641 -0.0932 0.1768 -0.4876 -0.2641z"
              style="fill: rgb(255, 255, 255)" />
            <path
              d="M6.235 6.5387c0.1408,0.1128 0.2796,0.2307 0.4189,0.3456l-0.1322 0.1652 -0.4185 -0.3629c0.0109,-0.0161 0.1257,-0.1522 0.1318,-0.1479z"
              style="fill: rgb(255, 255, 255)" />
            <path
              d="M6.8376 6.7532l-0.1604 0.1201 -0.329 -0.4405c0.0312,-0.0334 0.1248,-0.0996 0.1592,-0.1194 0.0612,0.08 0.2958,0.3786 0.3302,0.4398z"
              style="fill: rgb(255, 255, 255)" />
            <polygon points="6.8177,6.1547 7.0477,6.6528 6.8575,6.7446 6.6343,6.2352 " style="fill: rgb(255, 255, 255)" />
            <polygon points="7.2764,6.6067 7.0792,6.6467 6.9602,6.1023 7.1581,6.0624 " style="fill: rgb(255, 255, 255)" />
            <polygon points="7.5112,6.0449 7.5095,6.6022 7.3017,6.5984 7.3036,6.0499 " style="fill: rgb(255, 255, 255)" />
            <path
              d="M7.8559 6.1014c-0.032,0.1359 -0.0048,0.0216 -0.1279,0.5427l-0.1922 -0.0462 0.1154 -0.5315 0.2047 0.035z"
              style="fill: rgb(255, 255, 255)" />
            <polygon points="7.7635,6.6499 7.8578,6.4451 7.9919,6.1538 8.1791,6.2335 7.951,6.7371 "
              style="fill: rgb(255, 255, 255)" />
            <path
              d="M8.1255 6.8737l-0.1482 -0.1219c0.108,-0.1456 0.2163,-0.2911 0.3244,-0.4366 0.052,0.0372 0.1098,0.0768 0.1643,0.1176 -0.0485,0.0669 0,0 -0.3405,0.4409z"
              style="fill: rgb(255, 255, 255)" />
            <path
              d="M8.7125 6.6962c-0.0827,0.0663 -0.3673,0.3251 -0.4355,0.3492l-0.1181 -0.1572 0.4145 -0.3549 0.1391 0.1629z"
              style="fill: rgb(255, 255, 255)" />
            <path
              d="M8.8882 6.986l-0.4846 0.265 -0.0938 -0.1849 0.4817 -0.2578c0.0301,0.0283 0.0857,0.1349 0.0971,0.1775l-0.0004 0.0002z"
              style="fill: rgb(255, 255, 255)" />
            <path
              d="M9.0529 7.6687c-0.179,0.0095 -0.3819,0.0315 -0.5585,0.0299l-0.0149 -0.2026 0.5565 -0.0339 0.0169 0.2066z"
              style="fill: rgb(255, 255, 255)" />
            <polygon points="8.4936,9.0356 9.0533,9.0343 9.0569,9.2402 8.4936,9.2415 " style="fill: rgb(255, 255, 255)" />
            <polygon points="9.0575,8.9849 8.4988,8.9849 8.496,8.7769 9.0553,8.7769 " style="fill: rgb(255, 255, 255)" />
            <polygon points="9.0556,8.5224 9.0575,8.7283 8.4988,8.7283 8.4955,8.5194 " style="fill: rgb(255, 255, 255)" />
            <polygon points="8.4965,8.2614 9.0552,8.2614 9.0553,8.4678 8.496,8.4678 " style="fill: rgb(255, 255, 255)" />
            <path d="M8.4962 8.0012c0.1862,0 0.3725,0 0.5587,0l0 0.2059 -0.5587 0 0 -0.2059z"
              style="fill: rgb(255, 255, 255)" />
            <polygon points="8.4988,9.2931 9.0575,9.2931 9.0575,9.499 8.496,9.5021 " style="fill: rgb(255, 255, 255)" />
            <path
              d="M8.4179 7.2707l0.0539 0.2012 0.5365 -0.1501c-0.0126,-0.0635 -0.0283,-0.1461 -0.0641,-0.2003l-0.5263 0.1492z"
              style="fill: rgb(255, 255, 255)" />
          </g>
        </g>
      </svg>
    </g>
  </g>
</svg>