<?xml version="1.0"?>
<svg width="283.985" height="289.812" xmlns="http://www.w3.org/2000/svg" xmlns:svg="http://www.w3.org/2000/svg">
 <g class="layer">
  <title>Layer 1</title>
  <g id="svg_2" transform="matrix(1 0 0 1 0 0) matrix(1 0 0 1 23.4705 -584.661)">
   <g id="svg_1">
    <svg height="272.88" id="svg_3" preserveAspectRatio="none" viewBox="0 0 14.8196 15.547" width="260.11" x="-13.82" y="592.5">
     <g id="svg_4" transform="matrix(1 0 0 1 0 0)">
      <g id="svg_5">
       <polygon fill="#0a66c2" id="svg_6" points="12.2965,8.5799 14.8092,8.5799 14.8101,7.6502 12.2939,7.6502 "/>
       <polygon fill="#0a66c2" id="svg_7" points="-0,13.4495 2.5137,13.4435 2.53,14.3695 -0,14.3754 "/>
       <polygon fill="#0a66c2" id="svg_8" points="2.5611,13.2116 0.0116,13.2116 0.0116,12.286 2.5265,12.286 "/>
       <polygon fill="#0a66c2" id="svg_9" points="2.5286,11.1413 2.5358,12.0672 0.0233,12.0672 0.0099,11.1281 "/>
       <polygon fill="#0a66c2" id="svg_10" points="2.5253,9.9677 2.5265,10.8958 0.0116,10.8958 0.0119,9.9659 "/>
       <path d="m2.52,8.8l0,0.92l-2.5,0.02l-0.01,-0.64l0,-0.29c0.85,-0.02 1.67,-0.01 2.51,-0.01z" fill="#0a66c2" id="svg_11"/>
       <polygon fill="#0a66c2" id="svg_12" points="2.5247,8.5799 0.0128,8.5799 0.011,7.6502 2.5273,7.6502 "/>
       <polygon fill="#0a66c2" id="svg_13" points="0.0158,14.6075 2.5358,14.6075 2.53,15.547 0.0116,15.547 "/>
       <path d="m2.59,6.54l-0.07,0.95c-0.84,-0.07 -1.67,-0.13 -2.51,-0.2l0.07,-0.92l2.51,0.17z" fill="#0a66c2" id="svg_14"/>
       <polygon fill="#0a66c2" id="svg_15" points="2.87,5.5317 2.6175,6.4211 0.2001,5.7431 0.453,4.8473 "/>
       <path d="m0.73,4.23l0,0c0.08,-0.28 0.29,-0.64 0.47,-0.79l2.15,1.18l-0.42,0.8l-2.2,-1.19z" fill="#0a66c2" id="svg_16"/>
       <path d="m2.13,2.22c0.63,0.51 1.25,1.04 1.88,1.55l-0.59,0.75l-1.89,-1.63c0.05,-0.08 0.57,-0.69 0.6,-0.67z" fill="#0a66c2" id="svg_17"/>
       <path d="m4.84,3.18l-0.72,0.55l-1.48,-1.99c0.14,-0.15 0.56,-0.44 0.71,-0.53c0.28,0.36 1.33,1.7 1.49,1.97z" fill="#0a66c2" id="svg_18"/>
       <polygon fill="#0a66c2" id="svg_19" points="4.747,0.4938 5.7814,2.7336 4.9259,3.1466 3.9225,0.8555 "/>
       <polygon fill="#0a66c2" id="svg_20" points="6.81,2.5262 5.9231,2.7061 5.3878,0.2581 6.278,0.0784 "/>
       <polygon fill="#0a66c2" id="svg_21" points="7.8657,0 7.858,2.5062 6.9235,2.4888 6.9322,0.0222 "/>
       <path d="m9.42,0.25c-0.15,0.62 -0.03,0.1 -0.58,2.44l-0.86,-0.2l0.52,-2.39l0.92,0.15z" fill="#0a66c2" id="svg_22"/>
       <polygon fill="#0a66c2" id="svg_23" points="9.0003,2.7207 9.4245,1.7994 10.0275,0.4897 10.8694,0.8478 9.8437,3.1125 "/>
       <path d="m10.63,3.73l-0.67,-0.55c0.49,-0.66 0.97,-1.31 1.46,-1.96c0.23,0.16 0.49,0.34 0.74,0.52c-0.22,0.3 0,0 -1.53,1.99z" fill="#0a66c2" id="svg_24"/>
       <path d="m13.27,2.93c-0.37,0.3 -1.65,1.46 -1.96,1.57l-0.53,-0.71l1.86,-1.59l0.63,0.73z" fill="#0a66c2" id="svg_25"/>
       <path d="m14.06,4.23l-2.18,1.19l-0.42,-0.83l2.16,-1.16c0.14,0.13 0.39,0.61 0.44,0.8l0,0z" fill="#0a66c2" id="svg_26"/>
       <path d="m14.8,7.3c-0.81,0.05 -1.72,0.14 -2.51,0.14l-0.07,-0.91l2.5,-0.16l0.08,0.93z" fill="#0a66c2" id="svg_27"/>
       <polygon fill="#0a66c2" id="svg_28" points="12.2838,13.4495 14.8008,13.4436 14.817,14.3695 12.2838,14.3754 "/>
       <polygon fill="#0a66c2" id="svg_29" points="14.8196,13.2213 12.3071,13.2213 12.2947,12.286 14.8096,12.286 "/>
       <polygon fill="#0a66c2" id="svg_30" points="14.8112,11.1413 14.8196,12.0672 12.3071,12.0672 12.2923,11.1281 "/>
       <polygon fill="#0a66c2" id="svg_31" points="12.2966,9.9677 14.8091,9.9677 14.8096,10.8958 12.2947,10.8958 "/>
       <path d="m12.3,8.8c0.83,0 1.67,0 2.51,0l0,0.92l-2.51,0l0,-0.92z" fill="#0a66c2" id="svg_32"/>
       <polygon fill="#0a66c2" id="svg_33" points="12.3071,14.6075 14.8196,14.6075 14.8196,15.5334 12.2947,15.547 "/>
       <path d="m11.94,5.51l0.25,0.91l2.41,-0.68c-0.06,-0.28 -0.13,-0.65 -0.29,-0.9l-2.37,0.67z" fill="#0a66c2" id="svg_34"/>
       <polygon fill="#0a66c2" id="svg_35" points="10.0074,8.2022 11.3431,8.2022 11.3436,7.708 10.0061,7.708 "/>
       <polygon fill="#0a66c2" id="svg_36" points="3.4709,10.7907 4.8072,10.7875 4.8158,11.2798 3.4709,11.2829 "/>
       <polygon fill="#0a66c2" id="svg_37" points="4.8324,10.6643 3.4771,10.6643 3.4771,10.1722 4.814,10.1722 "/>
       <polygon fill="#0a66c2" id="svg_38" points="4.8151,9.5637 4.8189,10.0559 3.4833,10.0559 3.4762,9.5567 "/>
       <polygon fill="#0a66c2" id="svg_39" points="4.8133,8.9399 4.814,9.4332 3.4771,9.4332 3.4773,8.9389 "/>
       <path d="m4.81,8.32l0,0.49l-1.33,0.01l0,-0.34l0,-0.16c0.45,-0.01 0.88,0 1.33,0z" fill="#0a66c2" id="svg_40"/>
       <polygon fill="#0a66c2" id="svg_41" points="4.813,8.2022 3.4777,8.2022 3.4768,7.708 4.8144,7.708 "/>
       <polygon fill="#0a66c2" id="svg_42" points="3.4793,11.4063 4.8189,11.4063 4.8158,11.9057 3.4771,11.9057 "/>
       <path d="m4.85,7.12l-0.04,0.5c-0.44,-0.03 -0.89,-0.07 -1.33,-0.11l0.03,-0.48l1.34,0.09z" fill="#0a66c2" id="svg_43"/>
       <polygon fill="#0a66c2" id="svg_44" points="4.9966,6.5818 4.8623,7.0546 3.5773,6.6942 3.7117,6.218 "/>
       <path d="m3.86,5.89l0,0c0.04,-0.15 0.15,-0.34 0.25,-0.42l1.14,0.63l-0.22,0.42l-1.17,-0.63z" fill="#0a66c2" id="svg_45"/>
       <path d="m4.6,4.82c0.34,0.27 0.67,0.55 1,0.83l-0.31,0.39l-1,-0.86c0.02,-0.04 0.3,-0.37 0.31,-0.36z" fill="#0a66c2" id="svg_46"/>
       <path d="m6.04,5.33l-0.38,0.29l-0.79,-1.05c0.08,-0.08 0.3,-0.24 0.38,-0.29c0.15,0.19 0.71,0.91 0.79,1.05z" fill="#0a66c2" id="svg_47"/>
       <polygon fill="#0a66c2" id="svg_48" points="5.9943,3.9038 6.5442,5.0944 6.0894,5.314 5.556,4.0961 "/>
       <polygon fill="#0a66c2" id="svg_49" points="7.091,4.9842 6.6195,5.0798 6.335,3.7785 6.8082,3.683 "/>
       <polygon fill="#0a66c2" id="svg_50" points="7.6521,3.6413 7.6481,4.9735 7.1513,4.9643 7.1559,3.6531 "/>
       <path d="m8.48,3.78c-0.08,0.32 -0.02,0.05 -0.31,1.29l-0.46,-0.11l0.28,-1.27l0.49,0.09z" fill="#0a66c2" id="svg_51"/>
       <polygon fill="#0a66c2" id="svg_52" points="8.2553,5.0876 8.4808,4.5978 8.8013,3.9016 9.2488,4.092 8.7036,5.2958 "/>
       <path d="m9.12,5.62l-0.35,-0.29c0.25,-0.35 0.51,-0.69 0.77,-1.04c0.13,0.09 0.26,0.18 0.39,0.28c-0.11,0.16 0,0 -0.81,1.05z" fill="#0a66c2" id="svg_53"/>
       <path d="m10.52,5.2c-0.19,0.16 -0.87,0.78 -1.04,0.83l-0.28,-0.37l0.99,-0.85l0.33,0.39z" fill="#0a66c2" id="svg_54"/>
       <path d="m10.94,5.89l-1.15,0.63l-0.23,-0.44l1.15,-0.61c0.07,0.06 0.21,0.32 0.23,0.42l0,0z" fill="#0a66c2" id="svg_55"/>
       <path d="m11.34,7.52c-0.43,0.03 -0.92,0.08 -1.34,0.07l-0.03,-0.48l1.33,-0.08l0.04,0.49z" fill="#0a66c2" id="svg_56"/>
       <polygon fill="#0a66c2" id="svg_57" points="10.0007,10.7907 11.3387,10.7876 11.3473,11.2798 10.0007,11.2829 "/>
       <polygon fill="#0a66c2" id="svg_58" points="11.3487,10.6694 10.0131,10.6694 10.0065,10.1722 11.3434,10.1722 "/>
       <polygon fill="#0a66c2" id="svg_59" points="11.3442,9.5637 11.3487,10.0559 10.0131,10.0559 10.0052,9.5567 "/>
       <polygon fill="#0a66c2" id="svg_60" points="10.0075,8.9399 11.3431,8.9399 11.3434,9.4332 10.0065,9.4332 "/>
       <path d="m10.01,8.32c0.44,0 0.89,0 1.33,0l0,0.49l-1.33,0l0,-0.49z" fill="#0a66c2" id="svg_61"/>
       <polygon fill="#0a66c2" id="svg_62" points="10.0131,11.4063 11.3487,11.4063 11.3487,11.8985 10.0065,11.9057 "/>
       <path d="m9.82,6.57l0.13,0.48l1.28,-0.36c-0.03,-0.15 -0.07,-0.35 -0.15,-0.48l-1.26,0.36z" fill="#0a66c2" id="svg_63"/>
       <polygon fill="#0a66c2" id="svg_64" points="8.4964,7.9528 9.0552,7.9528 9.0554,7.7461 8.4959,7.7461 "/>
       <polygon fill="#0a66c2" id="svg_65" points="5.7621,9.0356 6.3211,9.0343 6.3247,9.2402 5.7621,9.2415 "/>
       <polygon fill="#0a66c2" id="svg_66" points="6.3316,8.9827 5.7647,8.9827 5.7647,8.7769 6.3239,8.7769 "/>
       <polygon fill="#0a66c2" id="svg_67" points="6.3244,8.5224 6.326,8.7283 5.7673,8.7283 5.7643,8.5194 "/>
       <polygon fill="#0a66c2" id="svg_68" points="6.3237,8.2614 6.3239,8.4678 5.7647,8.4678 5.7648,8.261 "/>
       <path d="m6.32,8l0,0.21l-0.55,0l-0.01,-0.14l0,-0.07c0.19,0 0.38,0 0.56,0z" fill="#0a66c2" id="svg_69"/>
       <polygon fill="#0a66c2" id="svg_70" points="6.3235,7.9528 5.765,7.9528 5.7646,7.7461 6.3241,7.7461 "/>
       <polygon fill="#0a66c2" id="svg_71" points="5.7656,9.2931 6.326,9.2931 6.3247,9.5021 5.7647,9.5021 "/>
       <path d="m6.34,7.5l-0.02,0.21c-0.18,-0.01 -0.37,-0.03 -0.55,-0.04l0.01,-0.21l0.56,0.04z" fill="#0a66c2" id="svg_72"/>
       <polygon fill="#0a66c2" id="svg_73" points="6.4003,7.275 6.3442,7.4728 5.8066,7.322 5.8628,7.1228 "/>
       <path d="m5.93,6.99l0,0c0.01,-0.07 0.06,-0.15 0.1,-0.18l0.48,0.26l-0.1,0.18l-0.48,-0.26z" fill="#0a66c2" id="svg_74"/>
       <path d="m6.24,6.54c0.14,0.11 0.27,0.23 0.41,0.34l-0.13,0.17l-0.42,-0.36c0.01,-0.02 0.13,-0.16 0.14,-0.15z" fill="#0a66c2" id="svg_75"/>
       <path d="m6.84,6.75l-0.16,0.12l-0.33,-0.44c0.03,-0.03 0.12,-0.1 0.16,-0.12c0.06,0.08 0.29,0.38 0.33,0.44z" fill="#0a66c2" id="svg_76"/>
       <polygon fill="#0a66c2" id="svg_77" points="6.8177,6.1547 7.0477,6.6528 6.8575,6.7446 6.6343,6.2352 "/>
       <polygon fill="#0a66c2" id="svg_78" points="7.2764,6.6067 7.0792,6.6467 6.9602,6.1023 7.1581,6.0624 "/>
       <polygon fill="#0a66c2" id="svg_79" points="7.5112,6.0449 7.5095,6.6022 7.3017,6.5984 7.3036,6.0499 "/>
       <path d="m7.86,6.1c-0.04,0.14 -0.01,0.02 -0.13,0.54l-0.19,-0.04l0.11,-0.53l0.21,0.03z" fill="#0a66c2" id="svg_80"/>
       <polygon fill="#0a66c2" id="svg_81" points="7.7635,6.6499 7.8578,6.4451 7.9919,6.1538 8.1791,6.2335 7.951,6.7371 "/>
       <path d="m8.13,6.87l-0.15,-0.12c0.11,-0.14 0.21,-0.29 0.32,-0.43c0.05,0.03 0.11,0.07 0.17,0.11c-0.05,0.07 0,0 -0.34,0.44z" fill="#0a66c2" id="svg_82"/>
       <path d="m8.71,6.7c-0.08,0.06 -0.36,0.32 -0.43,0.35l-0.12,-0.16l0.41,-0.36l0.14,0.17z" fill="#0a66c2" id="svg_83"/>
       <path d="m8.89,6.99l-0.49,0.26l-0.09,-0.18l0.48,-0.26c0.03,0.03 0.09,0.13 0.1,0.18l0,0z" fill="#0a66c2" id="svg_84"/>
       <path d="m9.05,7.67c-0.18,0.01 -0.38,0.03 -0.56,0.03l-0.01,-0.2l0.56,-0.04l0.01,0.21z" fill="#0a66c2" id="svg_85"/>
       <polygon fill="#0a66c2" id="svg_86" points="8.4936,9.0356 9.0533,9.0343 9.0569,9.2402 8.4936,9.2415 "/>
       <polygon fill="#0a66c2" id="svg_87" points="9.0575,8.9849 8.4988,8.9849 8.496,8.7769 9.0553,8.7769 "/>
       <polygon fill="#0a66c2" id="svg_88" points="9.0556,8.5224 9.0575,8.7283 8.4988,8.7283 8.4955,8.5194 "/>
       <polygon fill="#0a66c2" id="svg_89" points="8.4965,8.2614 9.0552,8.2614 9.0553,8.4678 8.496,8.4678 "/>
       <path d="m8.5,8c0.18,0 0.37,0 0.55,0l0,0.21l-0.55,0l0,-0.21z" fill="#0a66c2" id="svg_90"/>
       <polygon fill="#0a66c2" id="svg_91" points="8.4988,9.2931 9.0575,9.2931 9.0575,9.499 8.496,9.5021 "/>
       <path d="m8.42,7.27l0.05,0.2l0.54,-0.15c-0.01,-0.06 -0.03,-0.14 -0.07,-0.2l-0.52,0.15z" fill="#0a66c2" id="svg_92"/>
      </g>
     </g>
    </svg>
   </g>
  </g>
  <line fill="none" id="svg_93" stroke="#0a66c2" stroke-width="26" x1="46.49" x2="235.49" y1="272.19" y2="49.19"/>
 </g>
</svg>